<?xml version="1.0" encoding="utf-8"?>
<!-- Generator: Adobe Illustrator 23.1.0, SVG Export Plug-In . SVG Version: 6.00 Build 0)  -->
<svg version="1.1" id="Layer_1" xmlns="http://www.w3.org/2000/svg" xmlns:xlink="http://www.w3.org/1999/xlink" x="0px" y="0px"
	 viewBox="0 0 200 200" style="enable-background:new 0 0 200 200;" xml:space="preserve">
<style type="text/css">
	.st0{fill:#FEA601;}
	.st1{fill:#FEFEFD;}
	.st2{fill:#FEDA2D;}
	.st3{fill:#FEC901;}
</style>
<g>
	<g>
		<path class="st0" d="M104.98,199.81c-0.52,0-1.04,0-1.56,0c-0.87-0.84-1.91-1.57-2.57-2.55c-4.47-6.7-8.86-13.45-13.29-20.19
			c-0.38-0.58-0.79-1.13-1.25-1.77c-0.65,0.45-1.18,0.8-1.7,1.18c-6.72,5.01-13.44,10.03-20.17,15.03c-3.11,2.31-5.3,1.44-5.79-2.35
			c-0.61-4.77-1.13-9.55-1.71-14.32c-0.51-4.23-1.05-8.45-1.59-12.75c-1,0.19-1.76,0.32-2.53,0.47c-8.15,1.63-16.29,3.28-24.45,4.88
			c-3.66,0.72-5.2-1.06-4.02-4.59c2.7-8.06,5.43-16.11,8.13-24.17c0.18-0.52,0.3-1.07,0.46-1.67c-0.58-0.18-1-0.34-1.43-0.45
			c-8.38-2.08-16.76-4.15-25.13-6.23c-3.62-0.9-4.27-3.16-1.68-5.88c1.93-2.02,3.89-4.02,5.83-6.03c4.38-4.53,8.77-9.05,13.23-13.65
			c-0.59-0.49-1.08-0.91-1.58-1.32C15.55,98.05,8.89,92.64,2.27,87.19c-2.49-2.05-2.09-4.48,0.9-5.63c3.45-1.33,6.92-2.6,10.39-3.91
			c5.22-1.96,10.43-3.92,15.69-5.9c-0.37-0.8-0.66-1.45-0.96-2.09c-3.64-7.68-7.31-15.35-10.92-23.05c-1.27-2.7,0.11-4.86,2.96-4.66
			c4.86,0.35,9.72,0.8,14.57,1.19c4.44,0.36,8.89,0.71,13.55,1.08c0-0.95,0-1.65,0-2.35c0.02-8.26,0.02-16.51,0.05-24.77
			c0.01-3.97,2.07-5.14,5.51-3.16c8.5,4.89,16.99,9.8,25.48,14.7c0.59,0.34,1.19,0.67,1.83,1.03c5.24-9.02,10.34-17.85,15.49-26.64
			c0.64-1.09,1.53-2.03,2.31-3.04c0.65,0,1.3,0,1.95,0c0.78,0.84,1.74,1.58,2.31,2.54c4.23,7.16,8.38,14.36,12.56,21.55
			c0.35,0.6,0.74,1.19,1.17,1.89c0.71-0.46,1.3-0.83,1.88-1.23c7.02-4.81,14.03-9.65,21.06-14.44c2.67-1.82,4.89-0.74,5.16,2.45
			c0.54,6.41,1.04,12.83,1.57,19.24c0.23,2.76,0.5,5.51,0.75,8.3c0.77-0.07,1.29-0.08,1.8-0.16c8.4-1.36,16.8-2.73,25.19-4.1
			c1.45-0.24,2.87-0.39,3.93,0.95c1,1.27,0.57,2.54,0.06,3.86c-3.01,7.81-5.99,15.64-8.97,23.46c-0.24,0.64-0.44,1.29-0.68,1.98
			c0.58,0.21,0.94,0.35,1.31,0.46c8.1,2.35,16.21,4.68,24.32,7.03c1.55,0.45,3.28,0.7,3.73,2.65c0.43,1.85-0.89,2.85-2.02,3.93
			c-5.93,5.65-11.85,11.32-17.8,16.95c-0.51,0.48-1.2,0.78-1.89,1.22c0.97,0.88,1.45,1.32,1.93,1.75
			c6.39,5.63,12.79,11.26,19.16,16.9c2.48,2.19,1.97,4.64-1.17,5.72c-1.59,0.55-3.2,1.06-4.81,1.59
			c-7.14,2.36-14.28,4.73-21.53,7.14c0.36,0.9,0.66,1.67,0.99,2.43c3.29,7.7,6.6,15.39,9.87,23.1c1.25,2.95-0.3,4.96-3.43,4.57
			c-6.64-0.82-13.28-1.64-19.93-2.44c-2.54-0.31-5.09-0.58-7.76-0.88c-0.13,2.84-0.26,5.43-0.37,8.02
			c-0.27,6.56-0.52,13.12-0.81,19.68c-0.13,3.06-2.33,4.25-4.96,2.72c-0.73-0.43-1.43-0.9-2.15-1.35
			c-7.14-4.5-14.28-8.99-21.56-13.58c-0.4,0.72-0.75,1.33-1.08,1.94c-3.86,7.06-7.7,14.15-11.62,21.18
			C106.72,198.07,105.76,198.89,104.98,199.81z M95.98,39.06c-2.25,0.25-4.52,0.41-6.76,0.78c-12.85,2.13-23.87,7.94-33.02,17.11
			c-6.27,6.28-10.88,13.69-13.87,22.11c-3.92,11.08-4.6,22.34-2.01,33.73c2.9,12.72,9.26,23.48,19.19,32.05
			c10.83,9.34,23.28,14.47,37.64,14.79c0.69,0.12,1.39,0.39,2.07,0.34c2.84-0.19,5.7-0.35,8.52-0.74
			c15.78-2.19,28.75-9.6,38.67-21.93c9.54-11.86,14.05-25.52,13.25-40.88c-0.32-6.17-1.46-12.08-3.58-17.85
			c-5.48-14.88-15.43-25.84-29.4-33.14C117.1,40.43,106.8,38.39,95.98,39.06z"/>
		<path class="st1" d="M99.12,0c-0.78,1.01-1.67,1.95-2.31,3.04c-5.15,8.8-10.25,17.62-15.49,26.64c-0.65-0.36-1.25-0.69-1.83-1.03
			c-8.49-4.9-16.98-9.81-25.48-14.7c-3.44-1.98-5.5-0.81-5.51,3.16c-0.03,8.26-0.04,16.51-0.05,24.77c0,0.7,0,1.4,0,2.35
			c-4.66-0.37-9.1-0.72-13.55-1.08c-4.86-0.4-9.71-0.84-14.57-1.19c-2.85-0.21-4.23,1.96-2.96,4.66c3.62,7.7,7.28,15.37,10.92,23.05
			c0.3,0.64,0.6,1.29,0.96,2.09c-5.26,1.98-10.48,3.94-15.69,5.9c-3.46,1.3-6.94,2.57-10.39,3.91c-2.99,1.16-3.4,3.58-0.9,5.63
			c6.63,5.45,13.29,10.86,19.94,16.28c0.5,0.41,0.99,0.83,1.58,1.32c-4.46,4.6-8.84,9.12-13.23,13.65c-1.95,2.01-3.9,4.01-5.83,6.03
			c-2.59,2.71-1.94,4.98,1.68,5.88c8.38,2.08,16.76,4.15,25.13,6.23c0.43,0.11,0.85,0.26,1.43,0.45c-0.17,0.6-0.29,1.15-0.46,1.67
			c-2.71,8.06-5.43,16.11-8.13,24.17c-1.18,3.53,0.36,5.31,4.02,4.59c8.15-1.61,16.3-3.25,24.45-4.88c0.76-0.15,1.53-0.29,2.53-0.47
			c0.54,4.3,1.08,8.52,1.59,12.75c0.58,4.77,1.09,9.55,1.71,14.32c0.49,3.79,2.68,4.66,5.79,2.35c6.73-5,13.44-10.02,20.17-15.03
			c0.51-0.38,1.05-0.73,1.7-1.18c0.45,0.64,0.87,1.19,1.25,1.77c4.42,6.73,8.81,13.49,13.29,20.19c0.66,0.98,1.7,1.71,2.57,2.55
			c-34.47,0-68.94,0-103.42,0C0,133.21,0,66.6,0,0C33.04,0,66.08,0,99.12,0z"/>
		<path class="st1" d="M104.98,199.81c0.78-0.92,1.74-1.74,2.32-2.78c3.92-7.04,7.75-14.12,11.62-21.18
			c0.34-0.61,0.68-1.22,1.08-1.94c7.28,4.58,14.42,9.08,21.56,13.58c0.71,0.45,1.42,0.92,2.15,1.35c2.62,1.53,4.82,0.34,4.96-2.72
			c0.29-6.56,0.54-13.12,0.81-19.68c0.11-2.59,0.24-5.18,0.37-8.02c2.67,0.3,5.22,0.57,7.76,0.88c6.64,0.8,13.29,1.62,19.93,2.44
			c3.13,0.39,4.68-1.63,3.43-4.57c-3.27-7.71-6.58-15.4-9.87-23.1c-0.33-0.76-0.62-1.54-0.99-2.43c7.26-2.4,14.39-4.77,21.53-7.14
			c1.6-0.53,3.21-1.04,4.81-1.59c3.13-1.09,3.64-3.53,1.17-5.72c-6.38-5.65-12.78-11.27-19.16-16.9c-0.49-0.43-0.96-0.87-1.93-1.75
			c0.69-0.44,1.38-0.74,1.89-1.22c5.95-5.63,11.87-11.3,17.8-16.95c1.13-1.08,2.45-2.08,2.02-3.93c-0.45-1.96-2.18-2.21-3.73-2.65
			c-8.1-2.35-16.21-4.68-24.32-7.03c-0.37-0.11-0.72-0.25-1.31-0.46c0.24-0.69,0.44-1.34,0.68-1.98c2.98-7.82,5.96-15.65,8.97-23.46
			c0.51-1.32,0.94-2.59-0.06-3.86c-1.06-1.34-2.48-1.19-3.93-0.95c-8.4,1.37-16.79,2.74-25.19,4.1c-0.51,0.08-1.03,0.09-1.8,0.16
			c-0.25-2.79-0.52-5.54-0.75-8.3c-0.53-6.41-1.03-12.83-1.57-19.24c-0.27-3.18-2.49-4.26-5.16-2.45
			c-7.04,4.79-14.04,9.63-21.06,14.44c-0.58,0.4-1.17,0.76-1.88,1.23c-0.43-0.7-0.82-1.28-1.17-1.89
			c-4.18-7.19-8.33-14.39-12.56-21.55c-0.57-0.97-1.53-1.7-2.31-2.54c32.91,0,65.82,0,98.73,0c0,66.6,0,133.21,0,199.81
			C168.2,199.81,136.59,199.81,104.98,199.81z"/>
		<path class="st2" d="M97.16,159.63c-14.36-0.32-26.82-5.45-37.64-14.79c-9.94-8.57-16.3-19.33-19.19-32.05
			c-2.59-11.39-1.92-22.65,2.01-33.73c2.99-8.43,7.6-15.84,13.87-22.11c9.15-9.17,20.17-14.99,33.02-17.11
			c2.23-0.37,4.51-0.52,6.76-0.78c1.4,0.24,2.79,0.49,4.19,0.73c15.45,2.68,28.23,10.09,37.76,22.47
			c11.59,15.05,15.27,32.09,11.2,50.72c-2.15,9.86-6.67,18.54-13.31,26.08c-8.81,10-19.72,16.55-32.79,19.38
			C101.08,158.86,99.12,159.24,97.16,159.63z"/>
		<path class="st3" d="M97.16,159.63c1.96-0.4,3.92-0.78,5.87-1.2c13.08-2.83,23.99-9.37,32.79-19.38
			c6.64-7.54,11.16-16.22,13.31-26.08c4.06-18.63,0.38-35.67-11.2-50.72c-9.53-12.38-22.31-19.79-37.76-22.47
			c-1.4-0.24-2.79-0.49-4.19-0.73c10.82-0.67,21.11,1.37,30.71,6.38c13.97,7.3,23.92,18.26,29.4,33.14
			c2.12,5.77,3.26,11.68,3.58,17.85c0.8,15.37-3.71,29.03-13.25,40.88c-9.92,12.33-22.89,19.74-38.67,21.93
			c-2.82,0.39-5.67,0.55-8.52,0.74C98.56,160.02,97.85,159.76,97.16,159.63z"/>
	</g>
</g>
</svg>
