<?xml version="1.0" encoding="utf-8"?>
<!-- Generator: Adobe Illustrator 23.1.0, SVG Export Plug-In . SVG Version: 6.00 Build 0)  -->
<svg version="1.1" id="Layer_1" xmlns="http://www.w3.org/2000/svg" xmlns:xlink="http://www.w3.org/1999/xlink" x="0px" y="0px"
	 viewBox="0 0 200 200" style="enable-background:new 0 0 200 200;" xml:space="preserve">
<style type="text/css">
	.st0{fill:#FEFEFE;}
	.st1{fill:#F6F6F6;}
	.st2{fill:#FBCE5A;}
	.st3{fill:#F9EFCD;}
</style>
<g>
	<g>
		<path class="st0" d="M200,74.51c0,41.83,0,83.66,0,125.49c-66.34,0-132.69,0-199.03,0c0-66.67,0-133.33,0-200
			C67.31,0,133.66,0,200,0c0,19.98,0,39.97,0,59.95c-0.14,0.07-0.34,0.11-0.4,0.22c-0.52,1.04-1.06,2.07-1.49,3.14
			c-0.15,0.39-0.14,0.94,0.01,1.34c1.06,2.73,1.5,5.53,0.83,8.39C198.68,74.19,199.15,74.38,200,74.51z M176.95,179.61
			c-3.95-1.59-7.92-3.16-11.86-4.78c-7.35-3.03-14.38-6.69-21.21-10.76c-9.28-5.52-17.92-11.91-25.75-19.36
			c-6.85-6.52-12.9-13.7-18.07-21.62c-4.78-7.32-8.65-15.11-11.61-23.32c-2.51-6.94-4.35-14.07-5.53-21.38
			c-1.01-6.19-1.65-12.41-1.76-18.67c-0.08-4.52,0.08-9.05,0.43-13.56c0.37-4.74,0.85-9.5,1.76-14.16
			c1.08-5.53,2.62-10.96,4.07-16.41c0.43-1.64,1.21-3.19,1.89-4.95c-1.77,0.75-3.41,1.36-4.98,2.11
			c-6.61,3.12-13.06,6.56-19.09,10.69c-10.24,7.02-19.26,15.32-26.55,25.46c-6.72,9.34-11.58,19.53-14.28,30.68
			c-2.18,8.99-3.02,18.12-2.12,27.4c0.53,5.48,1.46,10.85,2.93,16.15c3.03,10.92,8.09,20.81,14.99,29.78
			c8.12,10.56,18.19,18.83,29.95,24.99c3.94,2.07,8.04,3.92,12.22,5.45c4.03,1.48,8.22,2.55,12.4,3.57
			c3.81,0.93,7.68,1.73,11.56,2.28c3.83,0.54,7.71,0.92,11.57,0.96c5.77,0.05,11.55-0.23,17.32-0.45c1.72-0.06,3.45-0.34,5.16-0.59
			c2.7-0.39,5.4-0.83,8.1-1.27c2.1-0.34,4.21-0.66,6.29-1.11c2.39-0.52,4.75-1.15,7.11-1.78c3.28-0.88,6.55-1.8,9.82-2.73
			c1.84-0.53,3.65-1.12,5.48-1.68c0.44,0,0.89,0.07,1.31-0.01c0.23-0.04,0.43-0.33,0.64-0.5c-0.2-0.14-0.38-0.38-0.6-0.4
			C177.99,179.58,177.47,179.61,176.95,179.61z"/>
		<path class="st1" d="M200,74.51c-0.85-0.13-1.32-0.33-1.05-1.48c0.67-2.85,0.23-5.66-0.83-8.39c-0.15-0.39-0.17-0.95-0.01-1.34
			c0.43-1.08,0.97-2.11,1.49-3.14c0.06-0.11,0.26-0.15,0.4-0.22C200,64.81,200,69.66,200,74.51z"/>
		<path class="st2" d="M177.15,180.56c-1.83,0.56-3.64,1.16-5.48,1.68c-3.27,0.94-6.54,1.85-9.82,2.73
			c-2.36,0.64-4.72,1.26-7.11,1.78c-2.08,0.45-4.19,0.77-6.29,1.11c-2.7,0.44-5.39,0.88-8.1,1.27c-1.71,0.25-3.43,0.53-5.16,0.59
			c-5.77,0.22-11.55,0.5-17.32,0.45c-3.86-0.03-7.74-0.42-11.57-0.96c-3.89-0.55-7.75-1.34-11.56-2.28
			c-4.18-1.02-8.37-2.09-12.4-3.57c-4.18-1.54-8.27-3.38-12.22-5.45c-11.76-6.17-21.83-14.44-29.95-24.99
			c-6.9-8.97-11.96-18.86-14.99-29.78c-1.47-5.3-2.4-10.67-2.93-16.15c-0.89-9.28-0.06-18.41,2.12-27.4
			c2.7-11.16,7.57-21.35,14.28-30.68c7.29-10.14,16.31-18.44,26.55-25.46c6.04-4.14,12.48-7.57,19.09-10.69
			c1.58-0.74,3.21-1.36,4.98-2.11c-0.68,1.76-1.46,3.31-1.89,4.95c-1.44,5.45-2.99,10.89-4.07,16.41
			c-0.91,4.66-1.38,9.42-1.76,14.16c-0.36,4.5-0.51,9.04-0.43,13.56c0.11,6.26,0.76,12.48,1.76,18.67
			c1.19,7.31,3.03,14.44,5.53,21.38c2.97,8.21,6.83,16,11.61,23.32c5.17,7.92,11.22,15.1,18.07,21.62
			c7.83,7.45,16.47,13.84,25.75,19.36c6.83,4.06,13.86,7.73,21.21,10.76c3.94,1.62,7.91,3.19,11.86,4.78
			C177.02,179.92,177.09,180.24,177.15,180.56z"/>
		<path class="st3" d="M177.15,180.56c-0.07-0.32-0.13-0.64-0.2-0.95c0.52,0.01,1.04-0.03,1.55,0.04c0.21,0.03,0.4,0.26,0.6,0.4
			c-0.21,0.17-0.4,0.46-0.64,0.5C178.04,180.63,177.59,180.56,177.15,180.56z"/>
	</g>
</g>
</svg>
